# xmcd
#
# Track frame offsets:
#	150
#	10409
#	22585
#	35244
#	46445
#	58561
#	71144
#	82886
#	94595
#	105764
#	116644
#	129741
#	141811
#	155990
#	169297
#	181107
#	194314
#	206265
#	219060
#	234421
#	247370
#	260236
#	273021
#	285464
#	298820
#	310099
#	320920
#	331643
#	342607
#
# Disc length: 4706 seconds
#
# Revision: 0
# Processed by: cddbd v1.5.2PL0 Copyright (c) Steve Scherf et al.
# Submitted via: EasyCDDAExtractor 16.0.6.1
#
DISCID=ae12601d
DTITLE=Bobby Vinton -  Greatest Hits
DYEAR=2011
DGENRE=R&B
TTITLE0=Highway Sixty
TTITLE1=No I Can't
TTITLE2=Motorhead Baby
TTITLE3=Sad Fool
TTITLE4=I Got Eyes
TTITLE5=Walkin' to My Baby
TTITLE6=What's Going On
TTITLE7=Are you sincere
TTITLE8=Blue Moon
TTITLE9=Blue Velvet
TTITLE10=Blue on blue
TTITLE11=Halfway to Paradise
TTITLE12=Have I told you lately that I love you
TTITLE13=Our day will come
TTITLE14=Please help me I'm falling
TTITLE15=Rain Rain go away
TTITLE16=Roses are red
TTITLE17=Sealed with a kiss
TTITLE18=Seasons in the Sun
TTITLE19=Sentimental me
TTITLE20=Somebody's breaking my heart
TTITLE21=Song sung blue
TTITLE22=Take good care of my baby
TTITLE23=The end of the World
TTITLE24=The first time I ever saw your face
TTITLE25=There I said it again
TTITLE26=To know you is to love you
TTITLE27=Try a little tenderness
TTITLE28=When I fall in love
EXTD=
EXTT0=
EXTT1=
EXTT2=
EXTT3=
EXTT4=
EXTT5=
EXTT6=
EXTT7=
EXTT8=
EXTT9=
EXTT10=
EXTT11=
EXTT12=
EXTT13=
EXTT14=
EXTT15=
EXTT16=
EXTT17=
EXTT18=
EXTT19=
EXTT20=
EXTT21=
EXTT22=
EXTT23=
EXTT24=
EXTT25=
EXTT26=
EXTT27=
EXTT28=
PLAYORDER=
